<svg xmlns="http://www.w3.org/2000/svg" xmlns:xlink="http://www.w3.org/1999/xlink" width="500" zoomAndPan="magnify" viewBox="0 0 375 374.999991" height="500" preserveAspectRatio="xMidYMid meet" version="1.0"><defs><g/><clipPath id="91d53f8515"><path d="M 109.738281 79.957031 L 265.261719 79.957031 L 265.261719 235.480469 L 109.738281 235.480469 Z M 109.738281 79.957031 " clip-rule="nonzero"/></clipPath><clipPath id="50e6647237"><path d="M 187.5 79.957031 C 144.554688 79.957031 109.738281 114.773438 109.738281 157.71875 C 109.738281 200.664062 144.554688 235.480469 187.5 235.480469 C 230.445312 235.480469 265.261719 200.664062 265.261719 157.71875 C 265.261719 114.773438 230.445312 79.957031 187.5 79.957031 Z M 187.5 79.957031 " clip-rule="nonzero"/></clipPath><clipPath id="dfdbc0b550"><path d="M 0.738281 0.957031 L 156.261719 0.957031 L 156.261719 156.480469 L 0.738281 156.480469 Z M 0.738281 0.957031 " clip-rule="nonzero"/></clipPath><clipPath id="572d086a97"><path d="M 78.5 0.957031 C 35.554688 0.957031 0.738281 35.773438 0.738281 78.71875 C 0.738281 121.664062 35.554688 156.480469 78.5 156.480469 C 121.445312 156.480469 156.261719 121.664062 156.261719 78.71875 C 156.261719 35.773438 121.445312 0.957031 78.5 0.957031 Z M 78.5 0.957031 " clip-rule="nonzero"/></clipPath><clipPath id="a8552cbbad"><rect x="0" width="157" y="0" height="157"/></clipPath><clipPath id="6869fc59ee"><path d="M 114 96 L 261 96 L 261 245 L 114 245 Z M 114 96 " clip-rule="nonzero"/></clipPath><clipPath id="32c2de39b2"><path d="M 96.394531 180.574219 L 187.613281 89.359375 L 278.300781 180.046875 L 187.082031 271.261719 Z M 96.394531 180.574219 " clip-rule="nonzero"/></clipPath><clipPath id="beb520616f"><path d="M 96.394531 180.574219 L 187.613281 89.359375 L 278.300781 180.046875 L 187.082031 271.261719 Z M 96.394531 180.574219 " clip-rule="nonzero"/></clipPath><clipPath id="e895152f8b"><path d="M 96.394531 180.574219 L 187.613281 89.359375 L 278.300781 180.046875 L 187.082031 271.261719 Z M 96.394531 180.574219 " clip-rule="nonzero"/></clipPath></defs><g clip-path="url(#91d53f8515)"><g clip-path="url(#50e6647237)"><g transform="matrix(1, 0, 0, 1, 109, 79)"><g clip-path="url(#a8552cbbad)"><g clip-path="url(#dfdbc0b550)"><g clip-path="url(#572d086a97)"><path fill="#000000" d="M 0.738281 0.957031 L 156.261719 0.957031 L 156.261719 156.480469 L 0.738281 156.480469 Z M 0.738281 0.957031 " fill-opacity="1" fill-rule="nonzero"/></g></g></g></g></g></g><g clip-path="url(#6869fc59ee)"><g clip-path="url(#32c2de39b2)"><g clip-path="url(#beb520616f)"><g clip-path="url(#e895152f8b)"><path fill="#ffffff" d="M 114.457031 198.203125 L 114.277344 190.753906 C 114.285156 186.496094 118.605469 183.648438 118.605469 183.648438 L 130.703125 174.460938 L 130.828125 163.808594 C 130.882812 158.1875 137.703125 159.878906 138.058594 162.464844 L 138.5 168.441406 L 152.078125 159.097656 L 151.445312 150.683594 C 150.640625 141.566406 158.203125 142.941406 158.957031 147.449219 L 159.617188 153.132812 L 179.074219 138.15625 C 179.664062 109.136719 179.8125 97.191406 187.210938 96.800781 C 194.65625 96.40625 194.75 110.371094 195.125 137.722656 L 215.273438 152.972656 L 215.882812 146.367188 C 216.242188 142.464844 222.863281 141.523438 222.652344 149.121094 L 222.359375 158.753906 L 236.039062 168.246094 L 236.761719 162.769531 C 237.324219 157.851562 243.523438 157.410156 243.769531 165.054688 L 243.796875 174.929688 C 243.742188 175.285156 255.566406 183.488281 255.566406 183.488281 C 261.589844 187.277344 260.605469 191.84375 260.605469 191.84375 L 260.167969 198.167969 L 211.097656 174.800781 C 206.84375 172.679688 200.683594 171.917969 196.585938 176.835938 C 194.457031 179.46875 192.492188 189.542969 192.640625 191.320312 L 192.078125 218.625 C 191.972656 219.234375 211.605469 233.867188 211.605469 233.867188 C 212.109375 234.371094 213.472656 244.570312 213.472656 244.570312 L 188.957031 237.71875 L 186.621094 244.101562 L 185.210938 237.59375 L 160.355469 244.535156 L 161.96875 234.222656 C 165.464844 232.042969 182.019531 218.828125 182.171875 218.371094 C 182.171875 218.371094 182.296875 194.25 182.265625 192.835938 C 182.070312 184.628906 181.847656 181.710938 180.382812 179.03125 C 178.914062 176.34375 174.835938 174.339844 164.699219 176.777344 C 150.71875 180.132812 114.457031 198.203125 114.457031 198.203125 Z M 114.457031 198.203125 " fill-opacity="1" fill-rule="nonzero"/></g></g></g></g><g fill="#000000" fill-opacity="1"><g transform="translate(94.177351, 266.683283)"><g><path d="M 0.5 0 L 0.5 -5.375 L 2.90625 -5.375 L 7.09375 -18.890625 L 3.90625 -18.890625 L 3.90625 -24.25 L 19.015625 -24.25 L 24.40625 -5.375 L 26.8125 -5.375 L 26.8125 0 L 13.171875 0 L 13.171875 -5.375 L 15.140625 -5.375 L 14.484375 -7.953125 L 8.984375 -7.953125 L 8.296875 -5.375 L 11.203125 -5.375 L 11.203125 0 Z M 9.765625 -11.640625 L 13.765625 -11.640625 L 11.984375 -19.078125 Z M 9.765625 -11.640625 "/></g></g></g><g fill="#000000" fill-opacity="1"><g transform="translate(120.994266, 266.683283)"><g><path d="M 0.96875 0 L 0.96875 -5.375 L 3.90625 -5.375 L 3.90625 -18.890625 L 0.96875 -18.890625 L 0.96875 -24.25 L 14.046875 -24.25 L 18.765625 -12.578125 L 23.421875 -24.25 L 35.625 -24.25 L 35.625 -18.890625 L 32.6875 -18.890625 L 32.6875 -5.375 L 35.625 -5.375 L 35.625 0 L 22.921875 0 L 22.921875 -5.375 L 24.875 -5.375 L 24.875 -14.421875 L 19.515625 0 L 15.109375 0 L 8.765625 -14.765625 L 8.765625 -5.375 L 11.203125 -5.375 L 11.203125 0 Z M 0.96875 0 "/></g></g></g><g fill="#000000" fill-opacity="1"><g transform="translate(157.145601, 266.683283)"><g><path d="M 0.5 0 L 0.5 -5.375 L 2.90625 -5.375 L 7.09375 -18.890625 L 3.90625 -18.890625 L 3.90625 -24.25 L 19.015625 -24.25 L 24.40625 -5.375 L 26.8125 -5.375 L 26.8125 0 L 13.171875 0 L 13.171875 -5.375 L 15.140625 -5.375 L 14.484375 -7.953125 L 8.984375 -7.953125 L 8.296875 -5.375 L 11.203125 -5.375 L 11.203125 0 Z M 9.765625 -11.640625 L 13.765625 -11.640625 L 11.984375 -19.078125 Z M 9.765625 -11.640625 "/></g></g></g><g fill="#000000" fill-opacity="1"><g transform="translate(183.962516, 266.683283)"><g><path d="M 0.96875 -5.375 L 3.40625 -5.375 L 3.40625 -18.890625 L 0.96875 -18.890625 L 0.96875 -24.25 L 12.203125 -24.25 C 16.617188 -24.25 19.992188 -23.226562 22.328125 -21.1875 C 24.671875 -19.15625 25.84375 -16.140625 25.84375 -12.140625 C 25.84375 -8.253906 24.675781 -5.257812 22.34375 -3.15625 C 20.019531 -1.050781 16.628906 0 12.171875 0 L 0.96875 0 Z M 12.171875 -5.375 C 13.878906 -5.375 15.125 -6.007812 15.90625 -7.28125 C 16.6875 -8.5625 17.078125 -10.179688 17.078125 -12.140625 C 17.078125 -14.140625 16.691406 -15.765625 15.921875 -17.015625 C 15.148438 -18.265625 13.898438 -18.890625 12.171875 -18.890625 L 11.203125 -18.890625 L 11.203125 -5.375 Z M 12.171875 -5.375 "/></g></g></g><g fill="#000000" fill-opacity="1"><g transform="translate(211.466249, 266.683283)"><g><path d="M 1.46875 0 L 1.46875 -5.375 L 4.40625 -5.375 L 4.40625 -18.890625 L 1.46875 -18.890625 L 1.46875 -24.25 L 21.953125 -24.25 L 21.953125 -14.609375 L 18.046875 -14.609375 L 16.578125 -18.890625 L 12.203125 -18.890625 L 12.203125 -14.921875 L 16.109375 -14.921875 L 16.109375 -10.921875 L 12.203125 -10.921875 L 12.203125 -5.375 L 16.578125 -5.375 L 18.046875 -10.328125 L 21.953125 -10.328125 L 21.953125 0 Z M 1.46875 0 "/></g></g></g><g fill="#000000" fill-opacity="1"><g transform="translate(233.569138, 266.683283)"><g><path d="M 13.296875 0.4375 C 9.671875 0.4375 7.0625 -0.507812 5.46875 -2.40625 C 3.882812 -4.300781 3.09375 -7.078125 3.09375 -10.734375 L 3.09375 -18.890625 L 0.625 -18.890625 L 0.625 -24.25 L 13.859375 -24.25 L 13.859375 -18.890625 L 11.609375 -18.890625 L 11.609375 -8.671875 C 11.609375 -7.679688 11.851562 -6.867188 12.34375 -6.234375 C 12.832031 -5.597656 13.597656 -5.28125 14.640625 -5.28125 C 15.515625 -5.28125 16.207031 -5.539062 16.71875 -6.0625 C 17.226562 -6.582031 17.484375 -7.285156 17.484375 -8.171875 L 17.484375 -18.890625 L 14.984375 -18.890625 L 14.984375 -24.25 L 24.9375 -24.25 L 24.9375 -18.890625 L 22.609375 -18.890625 L 22.609375 -8.390625 C 22.609375 -5.484375 21.753906 -3.285156 20.046875 -1.796875 C 18.335938 -0.304688 16.085938 0.4375 13.296875 0.4375 Z M 13.296875 0.4375 "/></g></g></g><g fill="#000000" fill-opacity="1"><g transform="translate(259.355833, 266.683283)"><g><path d="M 12.578125 0.4375 C 11.328125 0.4375 10.332031 0.296875 9.59375 0.015625 C 8.851562 -0.265625 8.0625 -0.738281 7.21875 -1.40625 L 6.6875 0 L 1.75 0 L 1.75 -7.4375 L 6.65625 -7.4375 C 6.96875 -6.582031 7.445312 -5.976562 8.09375 -5.625 C 8.75 -5.269531 9.554688 -5.09375 10.515625 -5.09375 C 11.097656 -5.09375 11.597656 -5.210938 12.015625 -5.453125 C 12.429688 -5.691406 12.640625 -6.007812 12.640625 -6.40625 C 12.640625 -6.90625 12.425781 -7.273438 12 -7.515625 C 11.570312 -7.765625 10.972656 -7.992188 10.203125 -8.203125 C 8.253906 -8.742188 6.648438 -9.328125 5.390625 -9.953125 C 4.128906 -10.578125 3.113281 -11.472656 2.34375 -12.640625 C 1.570312 -13.804688 1.1875 -15.347656 1.1875 -17.265625 C 1.1875 -18.742188 1.503906 -20.046875 2.140625 -21.171875 C 2.773438 -22.296875 3.6875 -23.164062 4.875 -23.78125 C 6.0625 -24.40625 7.453125 -24.71875 9.046875 -24.71875 C 11.003906 -24.71875 12.554688 -24.097656 13.703125 -22.859375 L 14.484375 -24.28125 L 18.859375 -24.28125 L 18.859375 -17.015625 L 14.171875 -17.015625 C 13.734375 -17.929688 13.25 -18.566406 12.71875 -18.921875 C 12.1875 -19.273438 11.460938 -19.453125 10.546875 -19.453125 C 9.835938 -19.453125 9.289062 -19.328125 8.90625 -19.078125 C 8.519531 -18.828125 8.328125 -18.484375 8.328125 -18.046875 C 8.328125 -17.566406 8.601562 -17.195312 9.15625 -16.9375 C 9.707031 -16.675781 10.492188 -16.429688 11.515625 -16.203125 C 13.328125 -15.785156 14.863281 -15.269531 16.125 -14.65625 C 17.382812 -14.039062 18.394531 -13.164062 19.15625 -12.03125 C 19.914062 -10.894531 20.296875 -9.4375 20.296875 -7.65625 C 20.296875 -6.132812 19.976562 -4.757812 19.34375 -3.53125 C 18.707031 -2.300781 17.800781 -1.332031 16.625 -0.625 C 15.445312 0.0820312 14.097656 0.4375 12.578125 0.4375 Z M 12.578125 0.4375 "/></g></g></g><g fill="#000000" fill-opacity="1"><g transform="translate(129.182976, 281.37127)"><g><path d="M 3.875 -3.515625 L 6.15625 -3.515625 L 6.15625 -0.25 C 5.789062 -0.132812 5.425781 -0.0507812 5.0625 0 C 4.695312 0.0625 4.273438 0.09375 3.796875 0.09375 C 2.773438 0.09375 1.984375 -0.207031 1.421875 -0.8125 C 0.859375 -1.414062 0.578125 -2.265625 0.578125 -3.359375 C 0.578125 -4.046875 0.710938 -4.648438 0.984375 -5.171875 C 1.265625 -5.703125 1.664062 -6.101562 2.1875 -6.375 C 2.71875 -6.65625 3.335938 -6.796875 4.046875 -6.796875 C 4.765625 -6.796875 5.429688 -6.664062 6.046875 -6.40625 L 5.75 -5.71875 C 5.144531 -5.976562 4.5625 -6.109375 4 -6.109375 C 3.1875 -6.109375 2.550781 -5.863281 2.09375 -5.375 C 1.632812 -4.882812 1.40625 -4.210938 1.40625 -3.359375 C 1.40625 -2.453125 1.625 -1.765625 2.0625 -1.296875 C 2.5 -0.828125 3.144531 -0.59375 4 -0.59375 C 4.46875 -0.59375 4.925781 -0.644531 5.375 -0.75 L 5.375 -2.8125 L 3.875 -2.8125 Z M 3.875 -3.515625 "/></g></g></g><g fill="#000000" fill-opacity="1"><g transform="translate(136.01677, 281.37127)"><g><path d="M 1.5625 0 L 0.8125 0 L 0.8125 -7.140625 L 1.5625 -7.140625 Z M 1.5625 0 "/></g></g></g><g fill="#000000" fill-opacity="1"><g transform="translate(138.390949, 281.37127)"><g><path d="M 5.140625 -2.515625 C 5.140625 -1.691406 4.929688 -1.050781 4.515625 -0.59375 C 4.109375 -0.132812 3.539062 0.09375 2.8125 0.09375 C 2.363281 0.09375 1.960938 -0.0078125 1.609375 -0.21875 C 1.265625 -0.4375 1 -0.738281 0.8125 -1.125 C 0.625 -1.519531 0.53125 -1.984375 0.53125 -2.515625 C 0.53125 -3.335938 0.734375 -3.972656 1.140625 -4.421875 C 1.546875 -4.878906 2.113281 -5.109375 2.84375 -5.109375 C 3.550781 -5.109375 4.109375 -4.875 4.515625 -4.40625 C 4.929688 -3.945312 5.140625 -3.316406 5.140625 -2.515625 Z M 1.3125 -2.515625 C 1.3125 -1.867188 1.441406 -1.378906 1.703125 -1.046875 C 1.960938 -0.710938 2.335938 -0.546875 2.828125 -0.546875 C 3.328125 -0.546875 3.707031 -0.710938 3.96875 -1.046875 C 4.226562 -1.378906 4.359375 -1.867188 4.359375 -2.515625 C 4.359375 -3.148438 4.226562 -3.632812 3.96875 -3.96875 C 3.707031 -4.300781 3.328125 -4.46875 2.828125 -4.46875 C 2.328125 -4.46875 1.945312 -4.300781 1.6875 -3.96875 C 1.4375 -3.644531 1.3125 -3.160156 1.3125 -2.515625 Z M 1.3125 -2.515625 "/></g></g></g><g fill="#000000" fill-opacity="1"><g transform="translate(144.060569, 281.37127)"><g><path d="M 3.140625 -5.109375 C 3.804688 -5.109375 4.320312 -4.878906 4.6875 -4.421875 C 5.050781 -3.972656 5.234375 -3.335938 5.234375 -2.515625 C 5.234375 -1.691406 5.046875 -1.050781 4.671875 -0.59375 C 4.304688 -0.132812 3.796875 0.09375 3.140625 0.09375 C 2.816406 0.09375 2.519531 0.0351562 2.25 -0.078125 C 1.976562 -0.203125 1.75 -0.390625 1.5625 -0.640625 L 1.515625 -0.640625 L 1.359375 0 L 0.8125 0 L 0.8125 -7.140625 L 1.5625 -7.140625 L 1.5625 -5.40625 C 1.5625 -5.007812 1.550781 -4.660156 1.53125 -4.359375 L 1.5625 -4.359375 C 1.914062 -4.859375 2.441406 -5.109375 3.140625 -5.109375 Z M 3.03125 -4.46875 C 2.507812 -4.46875 2.132812 -4.316406 1.90625 -4.015625 C 1.675781 -3.722656 1.5625 -3.222656 1.5625 -2.515625 C 1.5625 -1.804688 1.679688 -1.300781 1.921875 -1 C 2.160156 -0.695312 2.535156 -0.546875 3.046875 -0.546875 C 3.515625 -0.546875 3.863281 -0.710938 4.09375 -1.046875 C 4.320312 -1.390625 4.4375 -1.882812 4.4375 -2.53125 C 4.4375 -3.175781 4.320312 -3.660156 4.09375 -3.984375 C 3.863281 -4.304688 3.507812 -4.46875 3.03125 -4.46875 Z M 3.03125 -4.46875 "/></g></g></g><g fill="#000000" fill-opacity="1"><g transform="translate(149.81269, 281.37127)"><g><path d="M 3.890625 0 L 3.75 -0.71875 L 3.703125 -0.71875 C 3.453125 -0.40625 3.203125 -0.191406 2.953125 -0.078125 C 2.710938 0.0351562 2.40625 0.09375 2.03125 0.09375 C 1.53125 0.09375 1.140625 -0.03125 0.859375 -0.28125 C 0.578125 -0.539062 0.4375 -0.910156 0.4375 -1.390625 C 0.4375 -2.398438 1.242188 -2.929688 2.859375 -2.984375 L 3.71875 -3.015625 L 3.71875 -3.328125 C 3.71875 -3.722656 3.628906 -4.015625 3.453125 -4.203125 C 3.285156 -4.390625 3.019531 -4.484375 2.65625 -4.484375 C 2.226562 -4.484375 1.753906 -4.351562 1.234375 -4.09375 L 1 -4.671875 C 1.238281 -4.804688 1.503906 -4.910156 1.796875 -4.984375 C 2.097656 -5.066406 2.398438 -5.109375 2.703125 -5.109375 C 3.296875 -5.109375 3.738281 -4.972656 4.03125 -4.703125 C 4.320312 -4.441406 4.46875 -4.019531 4.46875 -3.4375 L 4.46875 0 Z M 2.171875 -0.53125 C 2.648438 -0.53125 3.023438 -0.660156 3.296875 -0.921875 C 3.566406 -1.179688 3.703125 -1.546875 3.703125 -2.015625 L 3.703125 -2.46875 L 2.9375 -2.4375 C 2.332031 -2.414062 1.894531 -2.320312 1.625 -2.15625 C 1.363281 -1.988281 1.234375 -1.726562 1.234375 -1.375 C 1.234375 -1.101562 1.316406 -0.894531 1.484375 -0.75 C 1.648438 -0.601562 1.878906 -0.53125 2.171875 -0.53125 Z M 2.171875 -0.53125 "/></g></g></g><g fill="#000000" fill-opacity="1"><g transform="translate(155.033141, 281.37127)"><g><path d="M 1.5625 0 L 0.8125 0 L 0.8125 -7.140625 L 1.5625 -7.140625 Z M 1.5625 0 "/></g></g></g><g fill="#000000" fill-opacity="1"><g transform="translate(157.407321, 281.37127)"><g/></g></g><g fill="#000000" fill-opacity="1"><g transform="translate(159.845667, 281.37127)"><g><path d="M 6.265625 -3.421875 C 6.265625 -2.304688 5.960938 -1.457031 5.359375 -0.875 C 4.765625 -0.289062 3.90625 0 2.78125 0 L 0.921875 0 L 0.921875 -6.703125 L 2.96875 -6.703125 C 4.019531 -6.703125 4.832031 -6.410156 5.40625 -5.828125 C 5.976562 -5.253906 6.265625 -4.453125 6.265625 -3.421875 Z M 5.453125 -3.390625 C 5.453125 -4.265625 5.226562 -4.921875 4.78125 -5.359375 C 4.34375 -5.804688 3.691406 -6.03125 2.828125 -6.03125 L 1.703125 -6.03125 L 1.703125 -0.671875 L 2.65625 -0.671875 C 3.582031 -0.671875 4.28125 -0.898438 4.75 -1.359375 C 5.21875 -1.816406 5.453125 -2.492188 5.453125 -3.390625 Z M 5.453125 -3.390625 "/></g></g></g><g fill="#000000" fill-opacity="1"><g transform="translate(166.688627, 281.37127)"><g><path d="M 1.5625 0 L 0.8125 0 L 0.8125 -5.03125 L 1.5625 -5.03125 Z M 0.75 -6.390625 C 0.75 -6.566406 0.789062 -6.691406 0.875 -6.765625 C 0.957031 -6.847656 1.0625 -6.890625 1.1875 -6.890625 C 1.3125 -6.890625 1.414062 -6.847656 1.5 -6.765625 C 1.59375 -6.679688 1.640625 -6.554688 1.640625 -6.390625 C 1.640625 -6.210938 1.59375 -6.082031 1.5 -6 C 1.414062 -5.914062 1.3125 -5.875 1.1875 -5.875 C 1.0625 -5.875 0.957031 -5.914062 0.875 -6 C 0.789062 -6.082031 0.75 -6.210938 0.75 -6.390625 Z M 0.75 -6.390625 "/></g></g></g><g fill="#000000" fill-opacity="1"><g transform="translate(169.062807, 281.37127)"><g><path d="M 4.046875 -1.375 C 4.046875 -0.90625 3.867188 -0.539062 3.515625 -0.28125 C 3.171875 -0.03125 2.6875 0.09375 2.0625 0.09375 C 1.394531 0.09375 0.875 -0.0078125 0.5 -0.21875 L 0.5 -0.9375 C 0.738281 -0.8125 0.992188 -0.710938 1.265625 -0.640625 C 1.546875 -0.566406 1.816406 -0.53125 2.078125 -0.53125 C 2.472656 -0.53125 2.773438 -0.59375 2.984375 -0.71875 C 3.203125 -0.851562 3.3125 -1.050781 3.3125 -1.3125 C 3.3125 -1.5 3.226562 -1.660156 3.0625 -1.796875 C 2.894531 -1.941406 2.5625 -2.109375 2.0625 -2.296875 C 1.59375 -2.472656 1.257812 -2.625 1.0625 -2.75 C 0.875 -2.882812 0.726562 -3.035156 0.625 -3.203125 C 0.53125 -3.367188 0.484375 -3.566406 0.484375 -3.796875 C 0.484375 -4.203125 0.648438 -4.519531 0.984375 -4.75 C 1.316406 -4.988281 1.773438 -5.109375 2.359375 -5.109375 C 2.898438 -5.109375 3.425781 -5 3.9375 -4.78125 L 3.671875 -4.171875 C 3.171875 -4.378906 2.710938 -4.484375 2.296875 -4.484375 C 1.941406 -4.484375 1.671875 -4.425781 1.484375 -4.3125 C 1.296875 -4.195312 1.203125 -4.039062 1.203125 -3.84375 C 1.203125 -3.707031 1.238281 -3.59375 1.3125 -3.5 C 1.382812 -3.40625 1.492188 -3.3125 1.640625 -3.21875 C 1.796875 -3.132812 2.09375 -3.015625 2.53125 -2.859375 C 3.125 -2.640625 3.523438 -2.421875 3.734375 -2.203125 C 3.941406 -1.984375 4.046875 -1.707031 4.046875 -1.375 Z M 4.046875 -1.375 "/></g></g></g><g fill="#000000" fill-opacity="1"><g transform="translate(173.540754, 281.37127)"><g><path d="M 2.4375 -0.53125 C 2.5625 -0.53125 2.6875 -0.539062 2.8125 -0.5625 C 2.945312 -0.582031 3.050781 -0.601562 3.125 -0.625 L 3.125 -0.046875 C 3.039062 -0.00390625 2.914062 0.0234375 2.75 0.046875 C 2.59375 0.078125 2.445312 0.09375 2.3125 0.09375 C 1.34375 0.09375 0.859375 -0.414062 0.859375 -1.4375 L 0.859375 -4.4375 L 0.140625 -4.4375 L 0.140625 -4.796875 L 0.859375 -5.109375 L 1.1875 -6.1875 L 1.625 -6.1875 L 1.625 -5.03125 L 3.078125 -5.03125 L 3.078125 -4.4375 L 1.625 -4.4375 L 1.625 -1.46875 C 1.625 -1.164062 1.691406 -0.929688 1.828125 -0.765625 C 1.972656 -0.609375 2.175781 -0.53125 2.4375 -0.53125 Z M 2.4375 -0.53125 "/></g></g></g><g fill="#000000" fill-opacity="1"><g transform="translate(176.854528, 281.37127)"><g><path d="M 3.09375 -5.109375 C 3.320312 -5.109375 3.523438 -5.09375 3.703125 -5.0625 L 3.59375 -4.359375 C 3.382812 -4.398438 3.203125 -4.421875 3.046875 -4.421875 C 2.640625 -4.421875 2.289062 -4.253906 2 -3.921875 C 1.707031 -3.597656 1.5625 -3.191406 1.5625 -2.703125 L 1.5625 0 L 0.8125 0 L 0.8125 -5.03125 L 1.4375 -5.03125 L 1.515625 -4.09375 L 1.5625 -4.09375 C 1.75 -4.414062 1.972656 -4.664062 2.234375 -4.84375 C 2.492188 -5.019531 2.78125 -5.109375 3.09375 -5.109375 Z M 3.09375 -5.109375 "/></g></g></g><g fill="#000000" fill-opacity="1"><g transform="translate(180.686215, 281.37127)"><g><path d="M 1.5625 0 L 0.8125 0 L 0.8125 -5.03125 L 1.5625 -5.03125 Z M 0.75 -6.390625 C 0.75 -6.566406 0.789062 -6.691406 0.875 -6.765625 C 0.957031 -6.847656 1.0625 -6.890625 1.1875 -6.890625 C 1.3125 -6.890625 1.414062 -6.847656 1.5 -6.765625 C 1.59375 -6.679688 1.640625 -6.554688 1.640625 -6.390625 C 1.640625 -6.210938 1.59375 -6.082031 1.5 -6 C 1.414062 -5.914062 1.3125 -5.875 1.1875 -5.875 C 1.0625 -5.875 0.957031 -5.914062 0.875 -6 C 0.789062 -6.082031 0.75 -6.210938 0.75 -6.390625 Z M 0.75 -6.390625 "/></g></g></g><g fill="#000000" fill-opacity="1"><g transform="translate(183.060395, 281.37127)"><g><path d="M 3.140625 -5.109375 C 3.804688 -5.109375 4.320312 -4.878906 4.6875 -4.421875 C 5.050781 -3.972656 5.234375 -3.335938 5.234375 -2.515625 C 5.234375 -1.691406 5.046875 -1.050781 4.671875 -0.59375 C 4.304688 -0.132812 3.796875 0.09375 3.140625 0.09375 C 2.816406 0.09375 2.519531 0.0351562 2.25 -0.078125 C 1.976562 -0.203125 1.75 -0.390625 1.5625 -0.640625 L 1.515625 -0.640625 L 1.359375 0 L 0.8125 0 L 0.8125 -7.140625 L 1.5625 -7.140625 L 1.5625 -5.40625 C 1.5625 -5.007812 1.550781 -4.660156 1.53125 -4.359375 L 1.5625 -4.359375 C 1.914062 -4.859375 2.441406 -5.109375 3.140625 -5.109375 Z M 3.03125 -4.46875 C 2.507812 -4.46875 2.132812 -4.316406 1.90625 -4.015625 C 1.675781 -3.722656 1.5625 -3.222656 1.5625 -2.515625 C 1.5625 -1.804688 1.679688 -1.300781 1.921875 -1 C 2.160156 -0.695312 2.535156 -0.546875 3.046875 -0.546875 C 3.515625 -0.546875 3.863281 -0.710938 4.09375 -1.046875 C 4.320312 -1.390625 4.4375 -1.882812 4.4375 -2.53125 C 4.4375 -3.175781 4.320312 -3.660156 4.09375 -3.984375 C 3.863281 -4.304688 3.507812 -4.46875 3.03125 -4.46875 Z M 3.03125 -4.46875 "/></g></g></g><g fill="#000000" fill-opacity="1"><g transform="translate(188.812516, 281.37127)"><g><path d="M 1.515625 -5.03125 L 1.515625 -1.765625 C 1.515625 -1.359375 1.609375 -1.050781 1.796875 -0.84375 C 1.984375 -0.644531 2.273438 -0.546875 2.671875 -0.546875 C 3.203125 -0.546875 3.585938 -0.6875 3.828125 -0.96875 C 4.078125 -1.257812 4.203125 -1.734375 4.203125 -2.390625 L 4.203125 -5.03125 L 4.953125 -5.03125 L 4.953125 0 L 4.328125 0 L 4.21875 -0.671875 L 4.171875 -0.671875 C 4.015625 -0.421875 3.796875 -0.226562 3.515625 -0.09375 C 3.242188 0.03125 2.929688 0.09375 2.578125 0.09375 C 1.972656 0.09375 1.515625 -0.0507812 1.203125 -0.34375 C 0.898438 -0.632812 0.75 -1.097656 0.75 -1.734375 L 0.75 -5.03125 Z M 1.515625 -5.03125 "/></g></g></g><g fill="#000000" fill-opacity="1"><g transform="translate(194.573803, 281.37127)"><g><path d="M 2.4375 -0.53125 C 2.5625 -0.53125 2.6875 -0.539062 2.8125 -0.5625 C 2.945312 -0.582031 3.050781 -0.601562 3.125 -0.625 L 3.125 -0.046875 C 3.039062 -0.00390625 2.914062 0.0234375 2.75 0.046875 C 2.59375 0.078125 2.445312 0.09375 2.3125 0.09375 C 1.34375 0.09375 0.859375 -0.414062 0.859375 -1.4375 L 0.859375 -4.4375 L 0.140625 -4.4375 L 0.140625 -4.796875 L 0.859375 -5.109375 L 1.1875 -6.1875 L 1.625 -6.1875 L 1.625 -5.03125 L 3.078125 -5.03125 L 3.078125 -4.4375 L 1.625 -4.4375 L 1.625 -1.46875 C 1.625 -1.164062 1.691406 -0.929688 1.828125 -0.765625 C 1.972656 -0.609375 2.175781 -0.53125 2.4375 -0.53125 Z M 2.4375 -0.53125 "/></g></g></g><g fill="#000000" fill-opacity="1"><g transform="translate(197.887577, 281.37127)"><g><path d="M 1.5625 0 L 0.8125 0 L 0.8125 -5.03125 L 1.5625 -5.03125 Z M 0.75 -6.390625 C 0.75 -6.566406 0.789062 -6.691406 0.875 -6.765625 C 0.957031 -6.847656 1.0625 -6.890625 1.1875 -6.890625 C 1.3125 -6.890625 1.414062 -6.847656 1.5 -6.765625 C 1.59375 -6.679688 1.640625 -6.554688 1.640625 -6.390625 C 1.640625 -6.210938 1.59375 -6.082031 1.5 -6 C 1.414062 -5.914062 1.3125 -5.875 1.1875 -5.875 C 1.0625 -5.875 0.957031 -5.914062 0.875 -6 C 0.789062 -6.082031 0.75 -6.210938 0.75 -6.390625 Z M 0.75 -6.390625 "/></g></g></g><g fill="#000000" fill-opacity="1"><g transform="translate(200.261757, 281.37127)"><g><path d="M 5.140625 -2.515625 C 5.140625 -1.691406 4.929688 -1.050781 4.515625 -0.59375 C 4.109375 -0.132812 3.539062 0.09375 2.8125 0.09375 C 2.363281 0.09375 1.960938 -0.0078125 1.609375 -0.21875 C 1.265625 -0.4375 1 -0.738281 0.8125 -1.125 C 0.625 -1.519531 0.53125 -1.984375 0.53125 -2.515625 C 0.53125 -3.335938 0.734375 -3.972656 1.140625 -4.421875 C 1.546875 -4.878906 2.113281 -5.109375 2.84375 -5.109375 C 3.550781 -5.109375 4.109375 -4.875 4.515625 -4.40625 C 4.929688 -3.945312 5.140625 -3.316406 5.140625 -2.515625 Z M 1.3125 -2.515625 C 1.3125 -1.867188 1.441406 -1.378906 1.703125 -1.046875 C 1.960938 -0.710938 2.335938 -0.546875 2.828125 -0.546875 C 3.328125 -0.546875 3.707031 -0.710938 3.96875 -1.046875 C 4.226562 -1.378906 4.359375 -1.867188 4.359375 -2.515625 C 4.359375 -3.148438 4.226562 -3.632812 3.96875 -3.96875 C 3.707031 -4.300781 3.328125 -4.46875 2.828125 -4.46875 C 2.328125 -4.46875 1.945312 -4.300781 1.6875 -3.96875 C 1.4375 -3.644531 1.3125 -3.160156 1.3125 -2.515625 Z M 1.3125 -2.515625 "/></g></g></g><g fill="#000000" fill-opacity="1"><g transform="translate(205.931377, 281.37127)"><g><path d="M 4.25 0 L 4.25 -3.25 C 4.25 -3.65625 4.15625 -3.957031 3.96875 -4.15625 C 3.78125 -4.363281 3.488281 -4.46875 3.09375 -4.46875 C 2.5625 -4.46875 2.171875 -4.328125 1.921875 -4.046875 C 1.679688 -3.765625 1.5625 -3.296875 1.5625 -2.640625 L 1.5625 0 L 0.8125 0 L 0.8125 -5.03125 L 1.421875 -5.03125 L 1.546875 -4.34375 L 1.59375 -4.34375 C 1.75 -4.582031 1.960938 -4.769531 2.234375 -4.90625 C 2.515625 -5.039062 2.832031 -5.109375 3.1875 -5.109375 C 3.789062 -5.109375 4.242188 -4.960938 4.546875 -4.671875 C 4.847656 -4.378906 5 -3.914062 5 -3.28125 L 5 0 Z M 4.25 0 "/></g></g></g><g fill="#000000" fill-opacity="1"><g transform="translate(211.692664, 281.37127)"><g/></g></g><g fill="#000000" fill-opacity="1"><g transform="translate(214.131011, 281.37127)"><g><path d="M 4.703125 -1.78125 C 4.703125 -1.195312 4.488281 -0.738281 4.0625 -0.40625 C 3.632812 -0.0703125 3.050781 0.09375 2.3125 0.09375 C 1.519531 0.09375 0.910156 -0.0078125 0.484375 -0.21875 L 0.484375 -0.96875 C 0.765625 -0.851562 1.066406 -0.757812 1.390625 -0.6875 C 1.710938 -0.625 2.03125 -0.59375 2.34375 -0.59375 C 2.863281 -0.59375 3.253906 -0.691406 3.515625 -0.890625 C 3.785156 -1.085938 3.921875 -1.359375 3.921875 -1.703125 C 3.921875 -1.941406 3.875 -2.132812 3.78125 -2.28125 C 3.6875 -2.425781 3.53125 -2.5625 3.3125 -2.6875 C 3.09375 -2.8125 2.757812 -2.957031 2.3125 -3.125 C 1.6875 -3.34375 1.238281 -3.601562 0.96875 -3.90625 C 0.707031 -4.21875 0.578125 -4.617188 0.578125 -5.109375 C 0.578125 -5.628906 0.769531 -6.039062 1.15625 -6.34375 C 1.539062 -6.644531 2.054688 -6.796875 2.703125 -6.796875 C 3.367188 -6.796875 3.976562 -6.675781 4.53125 -6.4375 L 4.296875 -5.75 C 3.742188 -5.988281 3.203125 -6.109375 2.671875 -6.109375 C 2.265625 -6.109375 1.941406 -6.019531 1.703125 -5.84375 C 1.472656 -5.664062 1.359375 -5.414062 1.359375 -5.09375 C 1.359375 -4.863281 1.398438 -4.675781 1.484375 -4.53125 C 1.578125 -4.382812 1.722656 -4.25 1.921875 -4.125 C 2.128906 -4 2.441406 -3.859375 2.859375 -3.703125 C 3.554688 -3.453125 4.035156 -3.179688 4.296875 -2.890625 C 4.566406 -2.609375 4.703125 -2.238281 4.703125 -1.78125 Z M 4.703125 -1.78125 "/></g></g></g><g fill="#000000" fill-opacity="1"><g transform="translate(219.282706, 281.37127)"><g><path d="M 0.015625 -5.03125 L 0.828125 -5.03125 L 1.921875 -2.15625 C 2.160156 -1.5 2.3125 -1.03125 2.375 -0.75 L 2.40625 -0.75 C 2.445312 -0.90625 2.53125 -1.171875 2.65625 -1.546875 C 2.789062 -1.921875 3.207031 -3.082031 3.90625 -5.03125 L 4.71875 -5.03125 L 2.5625 0.703125 C 2.351562 1.265625 2.101562 1.660156 1.8125 1.890625 C 1.53125 2.128906 1.179688 2.25 0.765625 2.25 C 0.523438 2.25 0.296875 2.222656 0.078125 2.171875 L 0.078125 1.5625 C 0.242188 1.601562 0.429688 1.625 0.640625 1.625 C 1.160156 1.625 1.53125 1.332031 1.75 0.75 L 2.03125 0.03125 Z M 0.015625 -5.03125 "/></g></g></g><g fill="#000000" fill-opacity="1"><g transform="translate(224.012732, 281.37127)"><g><path d="M 4.046875 -1.375 C 4.046875 -0.90625 3.867188 -0.539062 3.515625 -0.28125 C 3.171875 -0.03125 2.6875 0.09375 2.0625 0.09375 C 1.394531 0.09375 0.875 -0.0078125 0.5 -0.21875 L 0.5 -0.9375 C 0.738281 -0.8125 0.992188 -0.710938 1.265625 -0.640625 C 1.546875 -0.566406 1.816406 -0.53125 2.078125 -0.53125 C 2.472656 -0.53125 2.773438 -0.59375 2.984375 -0.71875 C 3.203125 -0.851562 3.3125 -1.050781 3.3125 -1.3125 C 3.3125 -1.5 3.226562 -1.660156 3.0625 -1.796875 C 2.894531 -1.941406 2.5625 -2.109375 2.0625 -2.296875 C 1.59375 -2.472656 1.257812 -2.625 1.0625 -2.75 C 0.875 -2.882812 0.726562 -3.035156 0.625 -3.203125 C 0.53125 -3.367188 0.484375 -3.566406 0.484375 -3.796875 C 0.484375 -4.203125 0.648438 -4.519531 0.984375 -4.75 C 1.316406 -4.988281 1.773438 -5.109375 2.359375 -5.109375 C 2.898438 -5.109375 3.425781 -5 3.9375 -4.78125 L 3.671875 -4.171875 C 3.171875 -4.378906 2.710938 -4.484375 2.296875 -4.484375 C 1.941406 -4.484375 1.671875 -4.425781 1.484375 -4.3125 C 1.296875 -4.195312 1.203125 -4.039062 1.203125 -3.84375 C 1.203125 -3.707031 1.238281 -3.59375 1.3125 -3.5 C 1.382812 -3.40625 1.492188 -3.3125 1.640625 -3.21875 C 1.796875 -3.132812 2.09375 -3.015625 2.53125 -2.859375 C 3.125 -2.640625 3.523438 -2.421875 3.734375 -2.203125 C 3.941406 -1.984375 4.046875 -1.707031 4.046875 -1.375 Z M 4.046875 -1.375 "/></g></g></g><g fill="#000000" fill-opacity="1"><g transform="translate(228.490678, 281.37127)"><g><path d="M 2.4375 -0.53125 C 2.5625 -0.53125 2.6875 -0.539062 2.8125 -0.5625 C 2.945312 -0.582031 3.050781 -0.601562 3.125 -0.625 L 3.125 -0.046875 C 3.039062 -0.00390625 2.914062 0.0234375 2.75 0.046875 C 2.59375 0.078125 2.445312 0.09375 2.3125 0.09375 C 1.34375 0.09375 0.859375 -0.414062 0.859375 -1.4375 L 0.859375 -4.4375 L 0.140625 -4.4375 L 0.140625 -4.796875 L 0.859375 -5.109375 L 1.1875 -6.1875 L 1.625 -6.1875 L 1.625 -5.03125 L 3.078125 -5.03125 L 3.078125 -4.4375 L 1.625 -4.4375 L 1.625 -1.46875 C 1.625 -1.164062 1.691406 -0.929688 1.828125 -0.765625 C 1.972656 -0.609375 2.175781 -0.53125 2.4375 -0.53125 Z M 2.4375 -0.53125 "/></g></g></g><g fill="#000000" fill-opacity="1"><g transform="translate(231.804452, 281.37127)"><g><path d="M 2.9375 0.09375 C 2.1875 0.09375 1.597656 -0.128906 1.171875 -0.578125 C 0.742188 -1.035156 0.53125 -1.664062 0.53125 -2.46875 C 0.53125 -3.28125 0.726562 -3.921875 1.125 -4.390625 C 1.519531 -4.867188 2.054688 -5.109375 2.734375 -5.109375 C 3.359375 -5.109375 3.851562 -4.898438 4.21875 -4.484375 C 4.59375 -4.078125 4.78125 -3.535156 4.78125 -2.859375 L 4.78125 -2.375 L 1.3125 -2.375 C 1.332031 -1.78125 1.484375 -1.332031 1.765625 -1.03125 C 2.046875 -0.726562 2.441406 -0.578125 2.953125 -0.578125 C 3.492188 -0.578125 4.03125 -0.6875 4.5625 -0.90625 L 4.5625 -0.234375 C 4.289062 -0.117188 4.035156 -0.0351562 3.796875 0.015625 C 3.554688 0.0664062 3.269531 0.09375 2.9375 0.09375 Z M 2.71875 -4.484375 C 2.320312 -4.484375 2.003906 -4.347656 1.765625 -4.078125 C 1.523438 -3.816406 1.378906 -3.457031 1.328125 -3 L 3.96875 -3 C 3.96875 -3.476562 3.859375 -3.84375 3.640625 -4.09375 C 3.421875 -4.351562 3.113281 -4.484375 2.71875 -4.484375 Z M 2.71875 -4.484375 "/></g></g></g><g fill="#000000" fill-opacity="1"><g transform="translate(237.070737, 281.37127)"><g><path d="M 7.21875 0 L 7.21875 -3.265625 C 7.21875 -3.671875 7.128906 -3.972656 6.953125 -4.171875 C 6.785156 -4.367188 6.519531 -4.46875 6.15625 -4.46875 C 5.6875 -4.46875 5.335938 -4.332031 5.109375 -4.0625 C 4.878906 -3.789062 4.765625 -3.375 4.765625 -2.8125 L 4.765625 0 L 4 0 L 4 -3.265625 C 4 -3.671875 3.914062 -3.972656 3.75 -4.171875 C 3.582031 -4.367188 3.316406 -4.46875 2.953125 -4.46875 C 2.472656 -4.46875 2.117188 -4.320312 1.890625 -4.03125 C 1.671875 -3.75 1.5625 -3.285156 1.5625 -2.640625 L 1.5625 0 L 0.8125 0 L 0.8125 -5.03125 L 1.421875 -5.03125 L 1.546875 -4.34375 L 1.59375 -4.34375 C 1.726562 -4.582031 1.925781 -4.769531 2.1875 -4.90625 C 2.457031 -5.039062 2.753906 -5.109375 3.078125 -5.109375 C 3.859375 -5.109375 4.367188 -4.828125 4.609375 -4.265625 L 4.65625 -4.265625 C 4.800781 -4.523438 5.015625 -4.726562 5.296875 -4.875 C 5.585938 -5.03125 5.910156 -5.109375 6.265625 -5.109375 C 6.835938 -5.109375 7.265625 -4.960938 7.546875 -4.671875 C 7.828125 -4.378906 7.96875 -3.914062 7.96875 -3.28125 L 7.96875 0 Z M 7.21875 0 "/></g></g></g></svg>